<svg width="364" height="430" viewBox="0 0 364 430" fill="none" xmlns="http://www.w3.org/2000/svg">
<g clip-path="url(#clip0_0_461)">
<rect width="364" height="430" rx="20" fill="#F9F8FE"/>
<rect x="20" y="98" width="353" height="351" rx="10" fill="#E9EFFC"/>
<rect x="38" y="116" width="326" height="314" fill="#F5FAFA"/>
<g filter="url(#filter0_d_0_461)">
<g clip-path="url(#clip1_0_461)">
<rect x="58" y="64" width="267" height="174" rx="10" fill="#54BD95"/>
<path d="M324.5 64.5L54.5 239H324.5V64.5Z" fill="#5FC09B"/>
<rect x="78" y="84" width="42" height="42" rx="10" fill="#FEE900"/>
<rect x="89" y="95" width="20" height="20" rx="4" fill="#54BD95"/>
<path d="M104 111.667V103.333" stroke="#F9F8FE" stroke-width="1.66667" stroke-linecap="round" stroke-linejoin="round"/>
<path d="M99 111.667V98.3334" stroke="#F9F8FE" stroke-width="1.66667" stroke-linecap="round" stroke-linejoin="round"/>
<path d="M94 111.667V106.667" stroke="#F9F8FE" stroke-width="1.66667" stroke-linecap="round" stroke-linejoin="round"/>
<path d="M87.4602 185H80.397V163.182H87.6839C89.8217 163.182 91.6577 163.619 93.1918 164.492C94.7259 165.359 95.9013 166.605 96.718 168.232C97.5419 169.851 97.9538 171.793 97.9538 174.059C97.9538 176.332 97.5384 178.285 96.7074 179.918C95.8835 181.552 94.6903 182.809 93.1278 183.69C91.5653 184.563 89.6761 185 87.4602 185ZM83.6889 182.124H87.2791C88.9411 182.124 90.3224 181.811 91.4233 181.186C92.5241 180.554 93.348 179.641 93.8949 178.448C94.4418 177.248 94.7152 175.785 94.7152 174.059C94.7152 172.347 94.4418 170.895 93.8949 169.702C93.3551 168.509 92.549 167.603 91.4766 166.985C90.4041 166.367 89.0724 166.058 87.4815 166.058H83.6889V182.124ZM108.684 185.33C107.15 185.33 105.812 184.979 104.668 184.276C103.525 183.572 102.637 182.589 102.005 181.325C101.373 180.06 101.057 178.583 101.057 176.893C101.057 175.195 101.373 173.711 102.005 172.44C102.637 171.168 103.525 170.181 104.668 169.478C105.812 168.775 107.15 168.423 108.684 168.423C110.219 168.423 111.557 168.775 112.701 169.478C113.844 170.181 114.732 171.168 115.364 172.44C115.996 173.711 116.312 175.195 116.312 176.893C116.312 178.583 115.996 180.06 115.364 181.325C114.732 182.589 113.844 183.572 112.701 184.276C111.557 184.979 110.219 185.33 108.684 185.33ZM108.695 182.656C109.689 182.656 110.513 182.393 111.167 181.868C111.82 181.342 112.303 180.643 112.616 179.769C112.935 178.896 113.095 177.933 113.095 176.882C113.095 175.838 112.935 174.879 112.616 174.006C112.303 173.125 111.82 172.418 111.167 171.886C110.513 171.353 109.689 171.087 108.695 171.087C107.694 171.087 106.863 171.353 106.202 171.886C105.549 172.418 105.062 173.125 104.743 174.006C104.43 174.879 104.274 175.838 104.274 176.882C104.274 177.933 104.43 178.896 104.743 179.769C105.062 180.643 105.549 181.342 106.202 181.868C106.863 182.393 107.694 182.656 108.695 182.656ZM126.761 185.33C125.177 185.33 123.813 184.972 122.67 184.254C121.533 183.53 120.66 182.532 120.049 181.261C119.438 179.989 119.133 178.533 119.133 176.893C119.133 175.231 119.445 173.764 120.07 172.493C120.695 171.214 121.576 170.217 122.712 169.499C123.849 168.782 125.188 168.423 126.729 168.423C127.972 168.423 129.08 168.654 130.053 169.116C131.026 169.57 131.81 170.21 132.407 171.033C133.011 171.857 133.369 172.82 133.483 173.92H130.383C130.212 173.153 129.822 172.493 129.211 171.939C128.607 171.385 127.798 171.108 126.782 171.108C125.894 171.108 125.116 171.342 124.449 171.811C123.788 172.273 123.273 172.933 122.904 173.793C122.535 174.645 122.35 175.653 122.35 176.818C122.35 178.011 122.531 179.041 122.893 179.908C123.256 180.774 123.767 181.445 124.428 181.921C125.095 182.397 125.88 182.635 126.782 182.635C127.386 182.635 127.933 182.525 128.423 182.305C128.92 182.077 129.335 181.754 129.669 181.335C130.01 180.916 130.248 180.412 130.383 179.822H133.483C133.369 180.881 133.025 181.825 132.45 182.656C131.874 183.487 131.104 184.141 130.138 184.616C129.179 185.092 128.053 185.33 126.761 185.33ZM147.255 178.214V168.636H150.451V185H147.319V182.166H147.149C146.772 183.04 146.169 183.768 145.338 184.35C144.514 184.925 143.487 185.213 142.259 185.213C141.208 185.213 140.277 184.982 139.468 184.521C138.665 184.052 138.033 183.359 137.571 182.443C137.117 181.527 136.889 180.394 136.889 179.045V168.636H140.075V178.661C140.075 179.776 140.384 180.664 141.002 181.325C141.619 181.985 142.422 182.315 143.409 182.315C144.006 182.315 144.599 182.166 145.188 181.868C145.785 181.57 146.279 181.119 146.669 180.515C147.067 179.911 147.262 179.144 147.255 178.214ZM154.731 185V168.636H157.789V171.3H157.991C158.332 170.398 158.89 169.695 159.664 169.19C160.438 168.679 161.365 168.423 162.444 168.423C163.538 168.423 164.454 168.679 165.193 169.19C165.939 169.702 166.489 170.405 166.844 171.3H167.015C167.405 170.426 168.027 169.73 168.879 169.212C169.731 168.686 170.747 168.423 171.926 168.423C173.41 168.423 174.621 168.888 175.559 169.819C176.503 170.749 176.975 172.152 176.975 174.027V185H173.79V174.325C173.79 173.217 173.488 172.415 172.885 171.918C172.281 171.42 171.56 171.172 170.722 171.172C169.685 171.172 168.879 171.491 168.304 172.131C167.728 172.763 167.441 173.576 167.441 174.57V185H164.266V174.123C164.266 173.235 163.989 172.521 163.435 171.982C162.881 171.442 162.16 171.172 161.272 171.172C160.669 171.172 160.111 171.332 159.6 171.651C159.096 171.964 158.687 172.401 158.375 172.962C158.069 173.523 157.917 174.173 157.917 174.911V185H154.731ZM188.297 185.33C186.685 185.33 185.297 184.986 184.132 184.297C182.974 183.601 182.079 182.624 181.447 181.367C180.822 180.103 180.51 178.622 180.51 176.925C180.51 175.249 180.822 173.771 181.447 172.493C182.079 171.214 182.96 170.217 184.089 169.499C185.226 168.782 186.554 168.423 188.074 168.423C188.997 168.423 189.892 168.576 190.758 168.881C191.625 169.187 192.403 169.666 193.091 170.32C193.78 170.973 194.324 171.822 194.721 172.866C195.119 173.903 195.318 175.163 195.318 176.648V177.777H182.31V175.391H192.197C192.197 174.553 192.026 173.81 191.685 173.164C191.344 172.511 190.865 171.996 190.247 171.619C189.636 171.243 188.919 171.055 188.095 171.055C187.2 171.055 186.419 171.275 185.751 171.715C185.091 172.148 184.579 172.717 184.217 173.42C183.862 174.116 183.684 174.872 183.684 175.689V177.553C183.684 178.647 183.876 179.577 184.26 180.344C184.65 181.112 185.194 181.697 185.89 182.102C186.586 182.5 187.399 182.699 188.329 182.699C188.933 182.699 189.483 182.614 189.981 182.443C190.478 182.266 190.907 182.003 191.27 181.655C191.632 181.307 191.909 180.877 192.101 180.366L195.116 180.909C194.874 181.797 194.441 182.575 193.816 183.242C193.198 183.903 192.42 184.418 191.483 184.787C190.552 185.149 189.491 185.33 188.297 185.33ZM202.038 175.284V185H198.852V168.636H201.91V171.3H202.112C202.489 170.433 203.078 169.737 203.881 169.212C204.69 168.686 205.71 168.423 206.938 168.423C208.053 168.423 209.03 168.658 209.868 169.126C210.706 169.588 211.356 170.277 211.817 171.193C212.279 172.109 212.51 173.242 212.51 174.592V185H209.325V174.975C209.325 173.789 209.016 172.862 208.398 172.195C207.78 171.52 206.931 171.183 205.852 171.183C205.113 171.183 204.456 171.342 203.881 171.662C203.313 171.982 202.862 172.45 202.528 173.068C202.201 173.679 202.038 174.418 202.038 175.284ZM224.42 168.636V171.193H215.482V168.636H224.42ZM217.879 164.716H221.065V180.195C221.065 180.813 221.157 181.278 221.342 181.591C221.526 181.896 221.764 182.106 222.055 182.219C222.354 182.326 222.677 182.379 223.025 182.379C223.281 182.379 223.504 182.362 223.696 182.326C223.888 182.29 224.037 182.262 224.143 182.241L224.719 184.872C224.534 184.943 224.271 185.014 223.93 185.085C223.589 185.163 223.163 185.206 222.652 185.213C221.814 185.227 221.033 185.078 220.308 184.766C219.584 184.453 218.998 183.97 218.55 183.317C218.103 182.663 217.879 181.843 217.879 180.856V164.716ZM236.139 185V163.182H249.669V166.016H239.431V172.663H248.7V175.487H239.431V185H236.139ZM253.462 185V168.636H256.647V185H253.462ZM255.07 166.112C254.516 166.112 254.04 165.927 253.643 165.558C253.252 165.181 253.057 164.734 253.057 164.215C253.057 163.69 253.252 163.242 253.643 162.873C254.04 162.496 254.516 162.308 255.07 162.308C255.624 162.308 256.097 162.496 256.487 162.873C256.885 163.242 257.084 163.69 257.084 164.215C257.084 164.734 256.885 165.181 256.487 165.558C256.097 165.927 255.624 166.112 255.07 166.112ZM264.118 163.182V185H260.932V163.182H264.118ZM275.456 185.33C273.843 185.33 272.455 184.986 271.29 184.297C270.132 183.601 269.238 182.624 268.605 181.367C267.98 180.103 267.668 178.622 267.668 176.925C267.668 175.249 267.98 173.771 268.605 172.493C269.238 171.214 270.118 170.217 271.248 169.499C272.384 168.782 273.712 168.423 275.232 168.423C276.155 168.423 277.05 168.576 277.917 168.881C278.783 169.187 279.561 169.666 280.25 170.32C280.939 170.973 281.482 171.822 281.88 172.866C282.277 173.903 282.476 175.163 282.476 176.648V177.777H269.468V175.391H279.355C279.355 174.553 279.184 173.81 278.843 173.164C278.502 172.511 278.023 171.996 277.405 171.619C276.794 171.243 276.077 171.055 275.253 171.055C274.358 171.055 273.577 171.275 272.909 171.715C272.249 172.148 271.738 172.717 271.375 173.42C271.02 174.116 270.843 174.872 270.843 175.689V177.553C270.843 178.647 271.034 179.577 271.418 180.344C271.809 181.112 272.352 181.697 273.048 182.102C273.744 182.5 274.557 182.699 275.488 182.699C276.091 182.699 276.642 182.614 277.139 182.443C277.636 182.266 278.066 182.003 278.428 181.655C278.79 181.307 279.067 180.877 279.259 180.366L282.274 180.909C282.032 181.797 281.599 182.575 280.974 183.242C280.356 183.903 279.578 184.418 278.641 184.787C277.711 185.149 276.649 185.33 275.456 185.33Z" fill="white"/>
<path d="M78.9844 212.443V210.845L84.6413 201.909H85.9006V204.261H85.1016L81.0554 210.666V210.768H88.8089V212.443H78.9844ZM85.1911 215V211.957L85.2038 211.229V201.909H87.0767V215H85.1911ZM95.3576 215.179C94.5565 215.179 93.8363 215.026 93.1971 214.719C92.5621 214.408 92.055 213.982 91.6758 213.44C91.2965 212.899 91.0941 212.281 91.0685 211.587H92.9862C93.033 212.149 93.2823 212.612 93.734 212.974C94.1857 213.336 94.7269 213.517 95.3576 213.517C95.8604 213.517 96.3058 213.402 96.6935 213.172C97.0856 212.938 97.3924 212.616 97.614 212.207C97.8398 211.798 97.9528 211.331 97.9528 210.807C97.9528 210.274 97.8377 209.799 97.6076 209.381C97.3775 208.964 97.06 208.636 96.6552 208.397C96.2546 208.158 95.7944 208.037 95.2745 208.033C94.8782 208.033 94.4798 208.101 94.0792 208.237C93.6786 208.374 93.3548 208.553 93.1076 208.774L91.2987 208.506L92.0337 201.909H99.2312V203.603H93.6765L93.261 207.266H93.3377C93.5934 207.018 93.9322 206.812 94.354 206.646C94.7802 206.479 95.2362 206.396 95.7219 206.396C96.5188 206.396 97.2283 206.586 97.8505 206.965C98.4769 207.344 98.9691 207.862 99.3271 208.518C99.6893 209.17 99.8683 209.92 99.864 210.768C99.8683 211.616 99.6765 212.373 99.2887 213.038C98.9052 213.702 98.3725 214.227 97.6907 214.61C97.0131 214.989 96.2354 215.179 95.3576 215.179ZM106.769 215.179C106.185 215.17 105.61 215.064 105.043 214.859C104.481 214.655 103.969 214.314 103.509 213.837C103.049 213.359 102.68 212.718 102.403 211.913C102.131 211.107 101.994 210.102 101.994 208.896C101.994 207.754 102.107 206.739 102.333 205.853C102.563 204.967 102.893 204.219 103.324 203.609C103.754 202.996 104.274 202.529 104.883 202.21C105.493 201.89 106.177 201.73 106.935 201.73C107.715 201.73 108.407 201.884 109.013 202.19C109.618 202.497 110.108 202.921 110.483 203.462C110.862 204.004 111.103 204.619 111.205 205.31H109.256C109.123 204.764 108.861 204.319 108.469 203.974C108.077 203.629 107.566 203.456 106.935 203.456C105.976 203.456 105.229 203.874 104.692 204.709C104.159 205.544 103.89 206.705 103.886 208.192H103.982C104.208 207.822 104.485 207.506 104.813 207.246C105.145 206.982 105.516 206.78 105.925 206.639C106.339 206.494 106.773 206.422 107.229 206.422C107.988 206.422 108.674 206.607 109.287 206.978C109.905 207.344 110.398 207.852 110.764 208.499C111.131 209.147 111.314 209.888 111.314 210.724C111.314 211.559 111.124 212.315 110.745 212.993C110.37 213.67 109.841 214.207 109.16 214.604C108.478 214.996 107.681 215.188 106.769 215.179ZM106.763 213.517C107.265 213.517 107.715 213.393 108.111 213.146C108.508 212.899 108.821 212.567 109.051 212.149C109.281 211.732 109.396 211.265 109.396 210.749C109.396 210.246 109.283 209.788 109.057 209.375C108.836 208.962 108.529 208.634 108.137 208.391C107.749 208.148 107.306 208.026 106.807 208.026C106.428 208.026 106.077 208.099 105.753 208.244C105.433 208.388 105.152 208.589 104.909 208.844C104.666 209.1 104.474 209.394 104.334 209.727C104.197 210.055 104.129 210.402 104.129 210.768C104.129 211.259 104.242 211.712 104.468 212.13C104.698 212.548 105.011 212.884 105.407 213.14C105.808 213.391 106.26 213.517 106.763 213.517ZM127.444 206.045C127.32 205.657 127.154 205.31 126.945 205.003C126.741 204.692 126.496 204.428 126.21 204.21C125.925 203.989 125.599 203.82 125.232 203.705C124.87 203.59 124.472 203.533 124.037 203.533C123.3 203.533 122.635 203.722 122.043 204.102C121.45 204.481 120.982 205.037 120.637 205.77C120.296 206.499 120.125 207.391 120.125 208.448C120.125 209.509 120.298 210.406 120.643 211.139C120.988 211.872 121.461 212.428 122.062 212.808C122.663 213.187 123.347 213.376 124.114 213.376C124.825 213.376 125.445 213.232 125.974 212.942C126.507 212.652 126.918 212.243 127.208 211.714C127.502 211.182 127.649 210.555 127.649 209.835L128.16 209.931H124.414V208.301H129.56V209.79C129.56 210.89 129.325 211.844 128.857 212.654C128.392 213.46 127.749 214.082 126.926 214.521C126.108 214.96 125.171 215.179 124.114 215.179C122.929 215.179 121.889 214.906 120.994 214.361C120.104 213.815 119.409 213.042 118.911 212.04C118.412 211.035 118.163 209.842 118.163 208.461C118.163 207.417 118.308 206.479 118.597 205.648C118.887 204.817 119.294 204.112 119.818 203.533C120.347 202.949 120.967 202.504 121.678 202.197C122.394 201.886 123.176 201.73 124.024 201.73C124.732 201.73 125.39 201.835 125.999 202.043C126.613 202.252 127.159 202.548 127.636 202.932C128.117 203.315 128.516 203.771 128.831 204.3C129.146 204.824 129.36 205.406 129.47 206.045H127.444ZM132.067 215V201.909H136.861C137.79 201.909 138.559 202.062 139.169 202.369C139.778 202.672 140.234 203.083 140.537 203.603C140.839 204.119 140.99 204.7 140.99 205.348C140.99 205.893 140.89 206.354 140.69 206.729C140.49 207.099 140.221 207.398 139.885 207.624C139.552 207.845 139.186 208.007 138.785 208.109V208.237C139.22 208.259 139.644 208.399 140.057 208.659C140.475 208.915 140.82 209.279 141.093 209.752C141.365 210.225 141.502 210.8 141.502 211.478C141.502 212.147 141.344 212.748 141.029 213.281C140.718 213.809 140.236 214.229 139.584 214.54C138.932 214.847 138.099 215 137.085 215H132.067ZM134.042 213.306H136.893C137.839 213.306 138.517 213.123 138.926 212.756C139.335 212.39 139.539 211.932 139.539 211.382C139.539 210.969 139.435 210.589 139.226 210.244C139.017 209.899 138.719 209.624 138.331 209.42C137.948 209.215 137.492 209.113 136.963 209.113H134.042V213.306ZM134.042 207.572H136.689C137.132 207.572 137.53 207.487 137.884 207.317C138.242 207.146 138.525 206.908 138.734 206.601C138.947 206.29 139.054 205.923 139.054 205.501C139.054 204.96 138.864 204.506 138.485 204.14C138.105 203.773 137.524 203.59 136.74 203.59H134.042V207.572ZM150.583 201.909V215H148.608V201.909H150.583ZM163.011 201.909V215H161.029V203.891H160.953L157.821 205.936V204.044L161.087 201.909H163.011ZM171.11 215.217C170.1 215.213 169.237 214.947 168.521 214.418C167.805 213.89 167.257 213.121 166.878 212.111C166.499 211.101 166.309 209.884 166.309 208.461C166.309 207.042 166.499 205.83 166.878 204.824C167.262 203.818 167.811 203.051 168.527 202.523C169.248 201.994 170.108 201.73 171.11 201.73C172.111 201.73 172.97 201.996 173.686 202.529C174.402 203.058 174.949 203.825 175.328 204.83C175.712 205.832 175.904 207.042 175.904 208.461C175.904 209.888 175.714 211.107 175.335 212.117C174.956 213.123 174.408 213.892 173.692 214.425C172.976 214.953 172.115 215.217 171.11 215.217ZM171.11 213.511C171.996 213.511 172.689 213.078 173.187 212.213C173.69 211.348 173.941 210.097 173.941 208.461C173.941 207.374 173.826 206.456 173.596 205.706C173.37 204.952 173.044 204.381 172.618 203.993C172.196 203.601 171.694 203.405 171.11 203.405C170.228 203.405 169.535 203.839 169.032 204.709C168.529 205.578 168.276 206.829 168.272 208.461C168.272 209.552 168.385 210.474 168.61 211.229C168.841 211.979 169.167 212.548 169.588 212.935C170.01 213.319 170.517 213.511 171.11 213.511ZM182.492 215.179C181.691 215.179 180.971 215.026 180.332 214.719C179.697 214.408 179.19 213.982 178.811 213.44C178.431 212.899 178.229 212.281 178.203 211.587H180.121C180.168 212.149 180.417 212.612 180.869 212.974C181.32 213.336 181.862 213.517 182.492 213.517C182.995 213.517 183.441 213.402 183.828 213.172C184.22 212.938 184.527 212.616 184.749 212.207C184.975 211.798 185.088 211.331 185.088 210.807C185.088 210.274 184.972 209.799 184.742 209.381C184.512 208.964 184.195 208.636 183.79 208.397C183.389 208.158 182.929 208.037 182.409 208.033C182.013 208.033 181.615 208.101 181.214 208.237C180.813 208.374 180.49 208.553 180.242 208.774L178.433 208.506L179.169 201.909H186.366V203.603H180.811L180.396 207.266H180.472C180.728 207.018 181.067 206.812 181.489 206.646C181.915 206.479 182.371 206.396 182.857 206.396C183.654 206.396 184.363 206.586 184.985 206.965C185.612 207.344 186.104 207.862 186.462 208.518C186.824 209.17 187.003 209.92 186.999 210.768C187.003 211.616 186.811 212.373 186.423 213.038C186.04 213.702 185.507 214.227 184.825 214.61C184.148 214.989 183.37 215.179 182.492 215.179ZM193.904 215.179C193.32 215.17 192.745 215.064 192.178 214.859C191.615 214.655 191.104 214.314 190.644 213.837C190.184 213.359 189.815 212.718 189.538 211.913C189.265 211.107 189.129 210.102 189.129 208.896C189.129 207.754 189.242 206.739 189.468 205.853C189.698 204.967 190.028 204.219 190.458 203.609C190.889 202.996 191.409 202.529 192.018 202.21C192.627 201.89 193.311 201.73 194.07 201.73C194.85 201.73 195.542 201.884 196.147 202.19C196.752 202.497 197.243 202.921 197.618 203.462C197.997 204.004 198.238 204.619 198.34 205.31H196.39C196.258 204.764 195.996 204.319 195.604 203.974C195.212 203.629 194.701 203.456 194.07 203.456C193.111 203.456 192.363 203.874 191.826 204.709C191.294 205.544 191.025 206.705 191.021 208.192H191.117C191.343 207.822 191.62 207.506 191.948 207.246C192.28 206.982 192.651 206.78 193.06 206.639C193.473 206.494 193.908 206.422 194.364 206.422C195.123 206.422 195.809 206.607 196.422 206.978C197.04 207.344 197.532 207.852 197.899 208.499C198.265 209.147 198.449 209.888 198.449 210.724C198.449 211.559 198.259 212.315 197.88 212.993C197.505 213.67 196.976 214.207 196.294 214.604C195.613 214.996 194.816 215.188 193.904 215.179ZM193.897 213.517C194.4 213.517 194.85 213.393 195.246 213.146C195.642 212.899 195.956 212.567 196.186 212.149C196.416 211.732 196.531 211.265 196.531 210.749C196.531 210.246 196.418 209.788 196.192 209.375C195.971 208.962 195.664 208.634 195.272 208.391C194.884 208.148 194.441 208.026 193.942 208.026C193.563 208.026 193.211 208.099 192.887 208.244C192.568 208.388 192.287 208.589 192.044 208.844C191.801 209.1 191.609 209.394 191.468 209.727C191.332 210.055 191.264 210.402 191.264 210.768C191.264 211.259 191.377 211.712 191.603 212.13C191.833 212.548 192.146 212.884 192.542 213.14C192.943 213.391 193.395 213.517 193.897 213.517ZM207.695 201.909V215H205.719V201.909H207.695ZM215.001 205.182V206.716H209.638V205.182H215.001ZM211.076 202.83H212.987V212.117C212.987 212.488 213.043 212.767 213.153 212.955C213.264 213.138 213.407 213.263 213.582 213.332C213.761 213.396 213.955 213.428 214.163 213.428C214.317 213.428 214.451 213.417 214.566 213.396C214.681 213.374 214.771 213.357 214.835 213.344L215.18 214.923C215.069 214.966 214.911 215.009 214.707 215.051C214.502 215.098 214.246 215.124 213.94 215.128C213.437 215.136 212.968 215.047 212.533 214.859C212.099 214.672 211.747 214.382 211.479 213.99C211.21 213.598 211.076 213.106 211.076 212.513V202.83ZM221.241 215.198C220.274 215.198 219.441 214.991 218.742 214.578C218.047 214.161 217.51 213.575 217.131 212.82C216.756 212.062 216.568 211.173 216.568 210.155C216.568 209.149 216.756 208.263 217.131 207.496C217.51 206.729 218.039 206.13 218.716 205.7C219.398 205.269 220.195 205.054 221.107 205.054C221.661 205.054 222.198 205.146 222.718 205.329C223.237 205.512 223.704 205.8 224.117 206.192C224.531 206.584 224.857 207.093 225.095 207.719C225.334 208.342 225.453 209.098 225.453 209.989V210.666H217.649V209.234H223.58C223.58 208.732 223.478 208.286 223.274 207.898C223.069 207.506 222.781 207.197 222.411 206.972C222.044 206.746 221.614 206.633 221.119 206.633C220.583 206.633 220.114 206.765 219.713 207.029C219.317 207.289 219.01 207.63 218.793 208.052C218.58 208.469 218.473 208.923 218.473 209.413V210.532C218.473 211.188 218.588 211.746 218.818 212.207C219.053 212.667 219.379 213.018 219.796 213.261C220.214 213.5 220.702 213.619 221.26 213.619C221.622 213.619 221.953 213.568 222.251 213.466C222.549 213.359 222.807 213.202 223.024 212.993C223.242 212.784 223.408 212.526 223.523 212.219L225.332 212.545C225.187 213.078 224.927 213.545 224.552 213.945C224.181 214.342 223.715 214.651 223.152 214.872C222.594 215.089 221.957 215.198 221.241 215.198ZM227.574 215V205.182H229.408V206.78H229.53C229.734 206.239 230.069 205.817 230.533 205.514C230.998 205.207 231.554 205.054 232.202 205.054C232.858 205.054 233.408 205.207 233.851 205.514C234.298 205.821 234.629 206.243 234.842 206.78H234.944C235.178 206.256 235.551 205.838 236.062 205.527C236.574 205.212 237.183 205.054 237.891 205.054C238.781 205.054 239.508 205.333 240.07 205.891C240.637 206.45 240.92 207.291 240.92 208.416V215H239.009V208.595C239.009 207.93 238.828 207.449 238.466 207.151C238.104 206.852 237.671 206.703 237.168 206.703C236.546 206.703 236.062 206.895 235.717 207.278C235.372 207.658 235.2 208.146 235.2 208.742V215H233.295V208.474C233.295 207.941 233.129 207.513 232.796 207.189C232.464 206.865 232.031 206.703 231.499 206.703C231.136 206.703 230.802 206.799 230.495 206.991C230.192 207.178 229.947 207.44 229.76 207.777C229.577 208.114 229.485 208.504 229.485 208.947V215H227.574ZM250.839 207.579L249.107 207.886C249.035 207.664 248.92 207.453 248.762 207.253C248.608 207.053 248.4 206.888 248.135 206.761C247.871 206.633 247.541 206.569 247.145 206.569C246.604 206.569 246.152 206.69 245.79 206.933C245.427 207.172 245.246 207.481 245.246 207.86C245.246 208.188 245.368 208.452 245.611 208.653C245.854 208.853 246.246 209.017 246.787 209.145L248.346 209.503C249.25 209.712 249.923 210.033 250.366 210.468C250.809 210.903 251.031 211.467 251.031 212.162C251.031 212.75 250.861 213.274 250.52 213.734C250.183 214.19 249.712 214.548 249.107 214.808C248.506 215.068 247.809 215.198 247.017 215.198C245.917 215.198 245.02 214.964 244.326 214.495C243.631 214.022 243.205 213.351 243.047 212.482L244.895 212.2C245.01 212.682 245.246 213.046 245.604 213.293C245.962 213.536 246.429 213.658 247.004 213.658C247.631 213.658 248.131 213.528 248.506 213.268C248.881 213.004 249.069 212.682 249.069 212.303C249.069 211.996 248.954 211.738 248.724 211.529C248.498 211.32 248.15 211.163 247.682 211.056L246.02 210.692C245.104 210.483 244.426 210.151 243.987 209.695C243.552 209.239 243.335 208.661 243.335 207.962C243.335 207.383 243.497 206.876 243.821 206.441C244.145 206.006 244.592 205.668 245.163 205.425C245.734 205.178 246.388 205.054 247.126 205.054C248.187 205.054 249.022 205.284 249.631 205.744C250.241 206.2 250.643 206.812 250.839 207.579Z" fill="white"/>
</g>
</g>
<g filter="url(#filter1_d_0_461)">
<rect x="276" y="33" width="66" height="66" rx="10" fill="white"/>
</g>
<path fill-rule="evenodd" clip-rule="evenodd" d="M319.586 66.0006C319.856 65.1148 320 64.1802 320 63.2143C320 57.5731 315.075 53 309 53C302.925 53 298 57.5731 298 63.2143C298 64.1802 298.144 65.1148 298.414 66.0006C294.864 66.0465 292 68.9388 292 72.5C292 76.0899 294.91 79 298.5 79H319.5C323.09 79 326 76.0899 326 72.5C326 68.9388 323.136 66.0465 319.586 66.0006Z" fill="#54BD95"/>
<rect x="345" y="115" width="28" height="144" rx="14" fill="#0F8CE9"/>
<path d="M139 293.5H349.5" stroke="#E7ECF3" stroke-width="2" stroke-dasharray="12 12"/>
<path d="M139 332H349.5" stroke="#E7ECF3" stroke-width="2" stroke-dasharray="12 12"/>
<path d="M139 370.5H349.5" stroke="#E7ECF3" stroke-width="2" stroke-dasharray="12 12"/>
<rect x="94.5" y="268.5" width="265" height="133" rx="8.5" stroke="#E7ECF3"/>
<rect x="146" y="321" width="18" height="64" rx="9" fill="#54BD95"/>
<rect x="191" y="289" width="18" height="64" rx="9" fill="#54BD95"/>
<rect x="236" y="303" width="18" height="64" rx="9" fill="#54BD95"/>
<rect x="281" y="321" width="18" height="64" rx="9" fill="#54BD95"/>
<rect x="326" y="294" width="18" height="64" rx="9" fill="#54BD95"/>
</g>
<defs>
<filter id="filter0_d_0_461" x="14" y="34" width="355" height="262" filterUnits="userSpaceOnUse" color-interpolation-filters="sRGB">
<feFlood flood-opacity="0" result="BackgroundImageFix"/>
<feColorMatrix in="SourceAlpha" type="matrix" values="0 0 0 0 0 0 0 0 0 0 0 0 0 0 0 0 0 0 127 0" result="hardAlpha"/>
<feOffset dy="14"/>
<feGaussianBlur stdDeviation="22"/>
<feComposite in2="hardAlpha" operator="out"/>
<feColorMatrix type="matrix" values="0 0 0 0 0 0 0 0 0 0 0 0 0 0 0 0 0 0 0.15 0"/>
<feBlend mode="normal" in2="BackgroundImageFix" result="effect1_dropShadow_0_461"/>
<feBlend mode="normal" in="SourceGraphic" in2="effect1_dropShadow_0_461" result="shape"/>
</filter>
<filter id="filter1_d_0_461" x="267" y="28" width="84" height="84" filterUnits="userSpaceOnUse" color-interpolation-filters="sRGB">
<feFlood flood-opacity="0" result="BackgroundImageFix"/>
<feColorMatrix in="SourceAlpha" type="matrix" values="0 0 0 0 0 0 0 0 0 0 0 0 0 0 0 0 0 0 127 0" result="hardAlpha"/>
<feOffset dy="4"/>
<feGaussianBlur stdDeviation="4.5"/>
<feComposite in2="hardAlpha" operator="out"/>
<feColorMatrix type="matrix" values="0 0 0 0 0 0 0 0 0 0 0 0 0 0 0 0 0 0 0.05 0"/>
<feBlend mode="normal" in2="BackgroundImageFix" result="effect1_dropShadow_0_461"/>
<feBlend mode="normal" in="SourceGraphic" in2="effect1_dropShadow_0_461" result="shape"/>
</filter>
<clipPath id="clip0_0_461">
<rect width="364" height="430" rx="20" fill="white"/>
</clipPath>
<clipPath id="clip1_0_461">
<rect x="58" y="64" width="267" height="174" rx="10" fill="white"/>
</clipPath>
</defs>
</svg>
