<svg width="364" height="430" viewBox="0 0 364 430" fill="none" xmlns="http://www.w3.org/2000/svg">
<g clip-path="url(#clip0_0_499)">
<rect width="364" height="430" rx="20" fill="#F9F8FE"/>
<rect x="20" y="98" width="353" height="351" rx="10" fill="#E9EFFC"/>
<rect x="38" y="116" width="326" height="314" fill="#F5FAFA"/>
<rect x="67.5" y="164.5" width="312" height="105" rx="9.5" stroke="#EFF2F7"/>
<g filter="url(#filter0_d_0_499)">
<rect x="85" y="182" width="70" height="70" rx="10" fill="#0F8CE9"/>
</g>
<path fill-rule="evenodd" clip-rule="evenodd" d="M130.586 217.001C130.856 216.115 131 215.18 131 214.214C131 208.573 126.075 204 120 204C113.925 204 109 208.573 109 214.214C109 215.18 109.144 216.115 109.414 217.001C105.864 217.046 103 219.939 103 223.5C103 227.09 105.91 230 109.5 230H130.5C134.09 230 137 227.09 137 223.5C137 219.939 134.136 217.046 130.586 217.001Z" fill="#DBE5FA"/>
<rect x="185" y="239" width="190" height="10" rx="5" fill="#DBE5FA"/>
<rect x="185" y="239" width="92" height="10" rx="5" fill="#54BD95"/>
<rect x="185" y="217" width="104" height="6" rx="3" fill="#DBE5FA"/>
<rect x="185" y="185" width="190" height="16" rx="8" fill="#DBE5FA"/>
<rect x="27.5" y="296.5" width="347" height="105" rx="9.5" fill="white" stroke="#EFF2F7"/>
<g filter="url(#filter1_d_0_499)">
<rect x="45" y="314" width="70" height="70" rx="10" fill="white"/>
</g>
<rect x="145" y="371" width="228" height="10" rx="5" fill="#DBE5FA"/>
<rect x="145" y="371" width="163.2" height="10" rx="5" fill="#54BD95"/>
<rect x="145" y="349" width="124.8" height="6" rx="3" fill="#DBE5FA"/>
<rect x="145" y="317" width="228" height="16" rx="8" fill="#DBE5FA"/>
<g clip-path="url(#clip1_0_499)">
<path d="M86.9507 345.553H73.0493C72.2605 345.553 71.6211 346.192 71.6211 346.981C71.6211 347.77 72.2605 348.409 73.0493 348.409V349.361C73.0493 350.15 73.6888 350.79 74.4775 350.79C75.2663 350.79 75.9057 350.15 75.9057 349.361V348.409H84.0941V349.361C84.0941 350.15 84.7336 350.79 85.5223 350.79C86.3111 350.79 86.9505 350.15 86.9505 349.361V348.409C87.7393 348.409 88.3787 347.77 88.3787 346.981C88.3787 346.192 87.7395 345.553 86.9507 345.553Z" fill="#54BD95"/>
<path d="M80 338.888C78.4224 338.888 77.1436 340.167 77.1436 341.744H82.8565C82.8564 340.167 81.5776 338.888 80 338.888Z" fill="#54BD95"/>
<path d="M80 329C68.9543 329 60 337.954 60 349C60 360.046 68.9543 369 80 369C91.0457 369 100 360.046 100 349C100 337.954 91.0457 329 80 329ZM92.1875 357.55C92.1875 359.127 90.9086 360.406 89.3311 360.406H70.6689C69.0914 360.406 67.8125 359.127 67.8125 357.55V344.601C67.8125 343.023 69.0914 341.744 70.6689 341.744H74.287C74.2871 338.589 76.8448 336.031 80 336.031C83.1552 336.031 85.7129 338.589 85.7129 341.744H89.331C90.9086 341.744 92.1874 343.023 92.1874 344.601V357.55H92.1875Z" fill="#54BD95"/>
</g>
<mask id="path-20-inside-1_0_499" fill="white">
<path d="M275 116C275 103.524 272.543 91.171 267.769 79.6451C262.994 68.1191 255.997 57.6464 247.175 48.8249C238.354 40.0033 227.881 33.0056 216.355 28.2314C204.829 23.4572 192.476 21 180 21C167.524 21 155.171 23.4572 143.645 28.2314C132.119 33.0056 121.646 40.0033 112.825 48.8249C104.003 57.6464 97.0056 68.1191 92.2314 79.6451C87.4572 91.171 85 103.524 85 116H119.013C119.013 107.991 120.591 100.061 123.655 92.6613C126.72 85.262 131.213 78.5389 136.876 72.8757C142.539 67.2126 149.262 62.7203 156.661 59.6554C164.061 56.5906 171.991 55.0131 180 55.0131C188.009 55.0131 195.939 56.5906 203.339 59.6554C210.738 62.7203 217.461 67.2126 223.124 72.8757C228.787 78.5389 233.28 85.262 236.345 92.6613C239.409 100.061 240.987 107.991 240.987 116H275Z"/>
</mask>
<path d="M275 116C275 103.524 272.543 91.171 267.769 79.6451C262.994 68.1191 255.997 57.6464 247.175 48.8249C238.354 40.0033 227.881 33.0056 216.355 28.2314C204.829 23.4572 192.476 21 180 21C167.524 21 155.171 23.4572 143.645 28.2314C132.119 33.0056 121.646 40.0033 112.825 48.8249C104.003 57.6464 97.0056 68.1191 92.2314 79.6451C87.4572 91.171 85 103.524 85 116H119.013C119.013 107.991 120.591 100.061 123.655 92.6613C126.72 85.262 131.213 78.5389 136.876 72.8757C142.539 67.2126 149.262 62.7203 156.661 59.6554C164.061 56.5906 171.991 55.0131 180 55.0131C188.009 55.0131 195.939 56.5906 203.339 59.6554C210.738 62.7203 217.461 67.2126 223.124 72.8757C228.787 78.5389 233.28 85.262 236.345 92.6613C239.409 100.061 240.987 107.991 240.987 116H275Z" stroke="#52459F" stroke-width="68" mask="url(#path-20-inside-1_0_499)"/>
<mask id="path-21-inside-2_0_499" fill="white">
<path d="M275 116C275 90.8044 264.991 66.6408 247.175 48.8249C229.359 31.0089 205.196 21 180 21C154.804 21 130.641 31.0089 112.825 48.8248C95.0089 66.6408 85 90.8044 85 116L119.03 116C119.03 99.8297 125.454 84.3218 136.888 72.8877C148.322 61.4536 163.83 55.03 180 55.03C196.17 55.03 211.678 61.4536 223.112 72.8877C234.546 84.3218 240.97 99.8298 240.97 116H275Z"/>
</mask>
<path d="M275 116C275 90.8044 264.991 66.6408 247.175 48.8249C229.359 31.0089 205.196 21 180 21C154.804 21 130.641 31.0089 112.825 48.8248C95.0089 66.6408 85 90.8044 85 116L119.03 116C119.03 99.8297 125.454 84.3218 136.888 72.8877C148.322 61.4536 163.83 55.03 180 55.03C196.17 55.03 211.678 61.4536 223.112 72.8877C234.546 84.3218 240.97 99.8298 240.97 116H275Z" stroke="#0F8CE9" stroke-width="68" mask="url(#path-21-inside-2_0_499)"/>
<mask id="path-22-inside-3_0_499" fill="white">
<path d="M275 116C275 96.391 268.932 77.2623 257.629 61.2389C246.325 45.2155 230.341 33.0824 211.868 26.5045L200.452 58.5627C212.308 62.7844 222.567 70.5712 229.821 80.8549C237.076 91.1386 240.97 103.415 240.97 116H275Z"/>
</mask>
<path d="M275 116C275 96.391 268.932 77.2623 257.629 61.2389C246.325 45.2155 230.341 33.0824 211.868 26.5045L200.452 58.5627C212.308 62.7844 222.567 70.5712 229.821 80.8549C237.076 91.1386 240.97 103.415 240.97 116H275Z" stroke="#54BD95" stroke-width="68" mask="url(#path-22-inside-3_0_499)"/>
<mask id="path-23-inside-4_0_499" fill="white">
<path d="M275 116C275 97.2465 269.45 78.9126 259.048 63.3081C248.646 47.7037 233.859 35.5269 216.549 28.312L203.457 59.7228C214.566 64.3532 224.056 72.1681 230.732 82.1829C237.408 92.1977 240.97 103.964 240.97 116H275Z"/>
</mask>
<path d="M275 116C275 97.2465 269.45 78.9126 259.048 63.3081C248.646 47.7037 233.859 35.5269 216.549 28.312L203.457 59.7228C214.566 64.3532 224.056 72.1681 230.732 82.1829C237.408 92.1977 240.97 103.964 240.97 116H275Z" stroke="#FEE900" stroke-width="68" mask="url(#path-23-inside-4_0_499)"/>
<path d="M93.5341 140.139C93.08 140.133 92.6326 140.05 92.1918 139.891C91.7543 139.732 91.3565 139.466 90.9986 139.095C90.6406 138.724 90.3539 138.225 90.1385 137.599C89.9264 136.972 89.8203 136.19 89.8203 135.252C89.8203 134.364 89.9081 133.575 90.0838 132.886C90.2628 132.196 90.5196 131.615 90.8544 131.141C91.1892 130.663 91.5935 130.3 92.0675 130.052C92.5414 129.803 93.0734 129.679 93.6634 129.679C94.2699 129.679 94.8085 129.798 95.2791 130.037C95.7498 130.276 96.1309 130.605 96.4226 131.026C96.7176 131.447 96.9048 131.926 96.9844 132.463H95.468C95.3653 132.039 95.1615 131.692 94.8565 131.424C94.5516 131.156 94.1539 131.021 93.6634 131.021C92.9176 131.021 92.3359 131.346 91.9183 131.996C91.504 132.645 91.2952 133.549 91.2919 134.705H91.3665C91.5421 134.417 91.7576 134.172 92.0128 133.969C92.2713 133.764 92.5597 133.607 92.8778 133.497C93.1993 133.384 93.5374 133.328 93.892 133.328C94.482 133.328 95.0156 133.472 95.4929 133.761C95.9735 134.046 96.3563 134.44 96.6413 134.944C96.9264 135.448 97.0689 136.024 97.0689 136.674C97.0689 137.324 96.9214 137.912 96.6264 138.439C96.3348 138.966 95.9238 139.384 95.3935 139.692C94.8632 139.997 94.2434 140.146 93.5341 140.139ZM93.5291 138.847C93.9202 138.847 94.2699 138.75 94.5781 138.558C94.8864 138.366 95.13 138.107 95.3089 137.783C95.4879 137.458 95.5774 137.095 95.5774 136.694C95.5774 136.303 95.4896 135.946 95.3139 135.625C95.1416 135.304 94.9029 135.048 94.598 134.859C94.2964 134.67 93.9517 134.576 93.5639 134.576C93.2689 134.576 92.9955 134.632 92.7436 134.745C92.495 134.858 92.2763 135.013 92.0874 135.212C91.8984 135.411 91.7493 135.64 91.6399 135.898C91.5339 136.154 91.4808 136.424 91.4808 136.709C91.4808 137.09 91.5687 137.443 91.7443 137.768C91.9233 138.093 92.1669 138.354 92.4751 138.553C92.7867 138.749 93.138 138.847 93.5291 138.847ZM102.425 140.169C101.639 140.166 100.968 139.959 100.411 139.548C99.8542 139.137 99.4283 138.538 99.1333 137.753C98.8384 136.967 98.6909 136.021 98.6909 134.914C98.6909 133.81 98.8384 132.867 99.1333 132.085C99.4316 131.303 99.8592 130.706 100.416 130.295C100.976 129.884 101.646 129.679 102.425 129.679C103.203 129.679 103.871 129.886 104.428 130.3C104.985 130.711 105.411 131.308 105.706 132.09C106.004 132.869 106.153 133.81 106.153 134.914C106.153 136.024 106.006 136.972 105.711 137.758C105.416 138.54 104.99 139.138 104.433 139.553C103.876 139.964 103.207 140.169 102.425 140.169ZM102.425 138.842C103.114 138.842 103.653 138.505 104.04 137.832C104.431 137.16 104.627 136.187 104.627 134.914C104.627 134.069 104.537 133.355 104.358 132.771C104.183 132.185 103.929 131.741 103.598 131.439C103.27 131.134 102.879 130.982 102.425 130.982C101.738 130.982 101.2 131.32 100.809 131.996C100.418 132.672 100.22 133.645 100.217 134.914C100.217 135.763 100.305 136.48 100.481 137.067C100.66 137.65 100.913 138.093 101.241 138.394C101.569 138.692 101.964 138.842 102.425 138.842ZM113.232 138.091V137.554C113.232 137.17 113.311 136.818 113.47 136.5C113.633 136.179 113.868 135.922 114.176 135.729C114.488 135.534 114.864 135.436 115.305 135.436C115.755 135.436 116.133 135.532 116.438 135.724C116.743 135.917 116.973 136.174 117.129 136.495C117.288 136.817 117.368 137.17 117.368 137.554V138.091C117.368 138.475 117.288 138.828 117.129 139.15C116.97 139.468 116.737 139.725 116.428 139.92C116.123 140.113 115.749 140.209 115.305 140.209C114.857 140.209 114.479 140.113 114.171 139.92C113.863 139.725 113.629 139.468 113.47 139.15C113.311 138.828 113.232 138.475 113.232 138.091ZM114.39 137.554V138.091C114.39 138.376 114.458 138.634 114.594 138.866C114.73 139.098 114.967 139.214 115.305 139.214C115.639 139.214 115.873 139.098 116.006 138.866C116.138 138.634 116.205 138.376 116.205 138.091V137.554C116.205 137.269 116.14 137.01 116.011 136.778C115.885 136.546 115.649 136.43 115.305 136.43C114.973 136.43 114.738 136.546 114.599 136.778C114.46 137.01 114.39 137.269 114.39 137.554ZM108.111 132.264V131.727C108.111 131.343 108.19 130.99 108.349 130.668C108.512 130.347 108.747 130.09 109.055 129.898C109.367 129.705 109.743 129.609 110.184 129.609C110.635 129.609 111.013 129.705 111.317 129.898C111.622 130.09 111.853 130.347 112.009 130.668C112.164 130.99 112.242 131.343 112.242 131.727V132.264C112.242 132.649 112.163 133.002 112.004 133.323C111.848 133.641 111.616 133.898 111.308 134.094C111.003 134.286 110.628 134.382 110.184 134.382C109.733 134.382 109.354 134.286 109.045 134.094C108.741 133.898 108.509 133.641 108.349 133.323C108.19 133.002 108.111 132.649 108.111 132.264ZM109.274 131.727V132.264C109.274 132.549 109.34 132.808 109.473 133.04C109.609 133.272 109.846 133.388 110.184 133.388C110.515 133.388 110.747 133.272 110.88 133.04C111.016 132.808 111.084 132.549 111.084 132.264V131.727C111.084 131.442 111.019 131.184 110.89 130.952C110.761 130.72 110.525 130.604 110.184 130.604C109.853 130.604 109.617 130.72 109.478 130.952C109.342 131.184 109.274 131.442 109.274 131.727ZM108.583 140L115.583 129.818H116.771L109.771 140H108.583Z" fill="black"/>
<path d="M245.766 138.011V136.768L250.165 129.818H251.145V131.648H250.523L247.376 136.629V136.709H253.407V138.011H245.766ZM250.593 140V137.634L250.603 137.067V129.818H252.06V140H250.593ZM258.684 140.169C257.899 140.166 257.228 139.959 256.671 139.548C256.114 139.137 255.688 138.538 255.393 137.753C255.098 136.967 254.951 136.021 254.951 134.914C254.951 133.81 255.098 132.867 255.393 132.085C255.691 131.303 256.119 130.706 256.676 130.295C257.236 129.884 257.905 129.679 258.684 129.679C259.463 129.679 260.131 129.886 260.688 130.3C261.245 130.711 261.671 131.308 261.966 132.09C262.264 132.869 262.413 133.81 262.413 134.914C262.413 136.024 262.266 136.972 261.971 137.758C261.676 138.54 261.25 139.138 260.693 139.553C260.136 139.964 259.467 140.169 258.684 140.169ZM258.684 138.842C259.374 138.842 259.912 138.505 260.3 137.832C260.691 137.16 260.887 136.187 260.887 134.914C260.887 134.069 260.797 133.355 260.618 132.771C260.443 132.185 260.189 131.741 259.858 131.439C259.529 131.134 259.138 130.982 258.684 130.982C257.998 130.982 257.46 131.32 257.069 131.996C256.677 132.672 256.48 133.645 256.477 134.914C256.477 135.763 256.565 136.48 256.74 137.067C256.919 137.65 257.173 138.093 257.501 138.394C257.829 138.692 258.224 138.842 258.684 138.842ZM269.491 138.091V137.554C269.491 137.17 269.571 136.818 269.73 136.5C269.892 136.179 270.128 135.922 270.436 135.729C270.747 135.534 271.124 135.436 271.564 135.436C272.015 135.436 272.393 135.532 272.698 135.724C273.003 135.917 273.233 136.174 273.389 136.495C273.548 136.817 273.628 137.17 273.628 137.554V138.091C273.628 138.475 273.548 138.828 273.389 139.15C273.23 139.468 272.996 139.725 272.688 139.92C272.383 140.113 272.009 140.209 271.564 140.209C271.117 140.209 270.739 140.113 270.431 139.92C270.123 139.725 269.889 139.468 269.73 139.15C269.571 138.828 269.491 138.475 269.491 138.091ZM270.65 137.554V138.091C270.65 138.376 270.718 138.634 270.854 138.866C270.989 139.098 271.226 139.214 271.564 139.214C271.899 139.214 272.133 139.098 272.265 138.866C272.398 138.634 272.464 138.376 272.464 138.091V137.554C272.464 137.269 272.4 137.01 272.27 136.778C272.144 136.546 271.909 136.43 271.564 136.43C271.233 136.43 270.998 136.546 270.858 136.778C270.719 137.01 270.65 137.269 270.65 137.554ZM264.371 132.264V131.727C264.371 131.343 264.45 130.99 264.609 130.668C264.772 130.347 265.007 130.09 265.315 129.898C265.627 129.705 266.003 129.609 266.444 129.609C266.894 129.609 267.272 129.705 267.577 129.898C267.882 130.09 268.113 130.347 268.268 130.668C268.424 130.99 268.502 131.343 268.502 131.727V132.264C268.502 132.649 268.422 133.002 268.263 133.323C268.108 133.641 267.876 133.898 267.567 134.094C267.262 134.286 266.888 134.382 266.444 134.382C265.993 134.382 265.613 134.286 265.305 134.094C265 133.898 264.768 133.641 264.609 133.323C264.45 133.002 264.371 132.649 264.371 132.264ZM265.534 131.727V132.264C265.534 132.549 265.6 132.808 265.733 133.04C265.869 133.272 266.106 133.388 266.444 133.388C266.775 133.388 267.007 133.272 267.14 133.04C267.276 132.808 267.344 132.549 267.344 132.264V131.727C267.344 131.442 267.279 131.184 267.15 130.952C267.02 130.72 266.785 130.604 266.444 130.604C266.112 130.604 265.877 130.72 265.738 130.952C265.602 131.184 265.534 131.442 265.534 131.727ZM264.843 140L271.843 129.818H273.031L266.031 140H264.843Z" fill="black"/>
<circle cx="180" cy="116" r="39" fill="#FEFEFD"/>
<circle cx="180" cy="116" r="30" fill="#E6F9FD"/>
<path d="M172.48 128.757C177.533 131.897 183.885 130.197 186.699 124.952C187.68 123.123 188.054 121.027 188.041 119.106L187.825 104.714C187.826 103.783 187.261 102.966 186.552 102.526C185.842 102.085 184.939 101.989 184.155 102.433L172.47 109.421C170.911 110.366 169.434 111.735 168.436 113.595C165.622 118.84 167.427 125.617 172.48 128.757ZM179.068 116.476C180.903 117.617 181.567 120.104 180.546 122.009C179.524 123.914 177.19 124.538 175.355 123.398C173.52 122.258 172.856 119.77 173.878 117.865C174.903 115.954 177.233 115.336 179.068 116.476Z" fill="#0F8CE9"/>
</g>
<defs>
<filter id="filter0_d_0_499" x="76" y="177" width="88" height="88" filterUnits="userSpaceOnUse" color-interpolation-filters="sRGB">
<feFlood flood-opacity="0" result="BackgroundImageFix"/>
<feColorMatrix in="SourceAlpha" type="matrix" values="0 0 0 0 0 0 0 0 0 0 0 0 0 0 0 0 0 0 127 0" result="hardAlpha"/>
<feOffset dy="4"/>
<feGaussianBlur stdDeviation="4.5"/>
<feComposite in2="hardAlpha" operator="out"/>
<feColorMatrix type="matrix" values="0 0 0 0 0 0 0 0 0 0 0 0 0 0 0 0 0 0 0.05 0"/>
<feBlend mode="normal" in2="BackgroundImageFix" result="effect1_dropShadow_0_499"/>
<feBlend mode="normal" in="SourceGraphic" in2="effect1_dropShadow_0_499" result="shape"/>
</filter>
<filter id="filter1_d_0_499" x="36" y="309" width="88" height="88" filterUnits="userSpaceOnUse" color-interpolation-filters="sRGB">
<feFlood flood-opacity="0" result="BackgroundImageFix"/>
<feColorMatrix in="SourceAlpha" type="matrix" values="0 0 0 0 0 0 0 0 0 0 0 0 0 0 0 0 0 0 127 0" result="hardAlpha"/>
<feOffset dy="4"/>
<feGaussianBlur stdDeviation="4.5"/>
<feComposite in2="hardAlpha" operator="out"/>
<feColorMatrix type="matrix" values="0 0 0 0 0 0 0 0 0 0 0 0 0 0 0 0 0 0 0.05 0"/>
<feBlend mode="normal" in2="BackgroundImageFix" result="effect1_dropShadow_0_499"/>
<feBlend mode="normal" in="SourceGraphic" in2="effect1_dropShadow_0_499" result="shape"/>
</filter>
<clipPath id="clip0_0_499">
<rect width="364" height="430" rx="20" fill="white"/>
</clipPath>
<clipPath id="clip1_0_499">
<rect width="40" height="40" fill="white" transform="translate(60 329)"/>
</clipPath>
</defs>
</svg>
