<svg id="Layer_1" data-name="Layer 1" xmlns="http://www.w3.org/2000/svg" viewBox="0 0 181 237"><defs><style>.cls-1{fill:#4ac3c6;}</style></defs><path class="cls-1" d="M104.86,32.45c0,29.31-44.43,29.31-44.43,0S104.86,3.14,104.86,32.45Z"/><path class="cls-1" d="M55.91,77.71A18.45,18.45,0,0,0,37.48,96.14V206.71a18.45,18.45,0,0,0,18.43,18.42h73.71a18.45,18.45,0,0,0,18.43-18.42V123.78H111.19a9.2,9.2,0,0,1-9.21-9.21V77.71Zm55.28,0v36.86h36.86Zm-55.28,23a4.62,4.62,0,0,1,4.61-4.61H78.94a4.61,4.61,0,1,1,0,9.21H60.52A4.62,4.62,0,0,1,55.91,100.75Zm0,18.42a4.62,4.62,0,0,1,4.61-4.6H78.94a4.61,4.61,0,1,1,0,9.21H60.52A4.62,4.62,0,0,1,55.91,119.17Zm36.85,20.74a4.62,4.62,0,0,1,4.61,4.6v5a59.59,59.59,0,0,1,6.94,1.47,4.61,4.61,0,0,1-2.39,8.9,38,38,0,0,0-9.24-1.53,13.59,13.59,0,0,0-6.8,1.59,4,4,0,0,0-2.33,3.68c0,1.07.37,1.87,2.1,2.91,2,1.18,4.78,2,8.41,3.14l.14,0h0c3.26,1,7.29,2.19,10.46,4.2,3.48,2.19,6.44,5.67,6.53,11a13.46,13.46,0,0,1-6.59,12,20.06,20.06,0,0,1-7.23,2.62v4.92a4.61,4.61,0,1,1-9.21,0v-5.12a61.08,61.08,0,0,1-8.9-2.57h0l-1.79-.6a4.6,4.6,0,0,1,2.91-8.72c.72.23,1.38.46,2.05.69h0c3.91,1.32,7.08,2.41,10.45,2.5a12.7,12.7,0,0,0,6.82-1.52,4.3,4.3,0,0,0,2.25-4c0-1.32-.52-2.24-2.22-3.34-2-1.23-4.75-2.13-8.35-3.22l-.46-.14h0a44,44,0,0,1-10-3.95c-3.45-2.07-6.51-5.44-6.53-10.74A13.19,13.19,0,0,1,81.22,152a21.3,21.3,0,0,1,6.94-2.51v-5a4.61,4.61,0,0,1,4.6-4.6Z"/></svg>